<svg id="svg" version="1.1" width="500" height="500" xmlns="http://www.w3.org/2000/svg" xmlns:xlink="http://www.w3.org/1999/xlink" style="display: block;"><g id="svgg"><path id="path0" d="M84.908 156.128 C 85.627 156.718,86.428 157.740,86.687 158.400 C 86.946 159.060,87.077 158.704,86.979 157.608 C 86.864 156.324,86.231 155.517,85.200 155.336 C 83.752 155.083,83.725 155.158,84.908 156.128 M88.800 162.000 C 88.112 162.829,88.082 163.200,88.702 163.200 C 89.196 163.200,89.600 162.865,89.600 162.456 C 89.600 162.046,90.410 161.555,91.400 161.365 C 93.124 161.033,93.128 161.013,91.498 160.909 C 90.562 160.849,89.348 161.340,88.800 162.000 M123.267 161.085 C 123.450 161.242,124.860 161.601,126.400 161.884 C 128.370 162.245,128.844 162.165,128.000 161.611 C 126.915 160.900,122.473 160.407,123.267 161.085 M151.597 161.360 C 152.916 161.571,154.293 162.162,154.658 162.672 C 155.106 163.299,155.217 163.210,154.999 162.400 C 154.801 161.661,153.624 161.157,151.938 161.087 C 149.430 160.984,149.401 161.007,151.597 161.360 M176.000 161.109 C 176.000 161.279,177.061 161.574,178.358 161.764 C 179.655 161.955,180.533 161.816,180.311 161.455 C 179.914 160.814,176.000 160.500,176.000 161.109 M183.200 167.886 C 183.200 169.195,182.782 170.406,182.272 170.576 C 181.578 170.807,181.572 171.277,182.248 172.443 C 183.114 173.935,183.152 173.925,183.176 172.200 C 183.189 171.210,183.560 170.400,184.000 170.400 C 184.440 170.400,184.800 169.521,184.800 168.447 C 184.800 167.373,184.440 166.272,184.000 166.000 C 183.535 165.713,183.200 166.503,183.200 167.886 M157.087 169.538 C 157.157 171.224,157.661 172.401,158.400 172.599 C 159.210 172.817,159.299 172.706,158.672 172.258 C 158.162 171.893,157.571 170.516,157.360 169.197 C 157.007 167.001,156.984 167.030,157.087 169.538 M85.088 176.000 C 85.088 180.180,85.223 181.890,85.388 179.800 C 85.553 177.710,85.553 174.290,85.388 172.200 C 85.223 170.110,85.088 171.820,85.088 176.000 M107.600 169.385 C 106.013 169.782,104.836 170.994,104.812 172.257 C 104.806 172.619,105.365 172.349,106.056 171.658 C 107.694 170.020,109.478 169.653,117.200 169.362 L 123.600 169.122 116.400 169.054 C 112.440 169.016,108.480 169.165,107.600 169.385 M148.945 176.253 C 148.804 183.867,149.529 187.200,151.326 187.200 C 151.860 187.200,151.772 186.691,151.098 185.882 C 150.409 185.055,149.830 181.551,149.545 176.482 L 149.089 168.400 148.945 176.253 M170.400 169.546 C 173.700 169.848,176.668 169.877,176.996 169.611 C 177.325 169.345,174.625 169.098,170.996 169.062 L 164.400 168.997 170.400 169.546 M159.263 176.200 C 159.228 176.970,158.840 177.600,158.400 177.600 C 157.960 177.600,157.600 178.680,157.600 180.000 C 157.600 181.320,157.984 182.400,158.454 182.400 C 158.950 182.400,159.090 181.714,158.788 180.762 C 158.502 179.860,158.692 178.613,159.210 177.989 C 159.727 177.364,159.966 176.392,159.739 175.827 C 159.480 175.181,159.303 175.320,159.263 176.200 M104.863 180.968 C 104.823 182.358,105.586 183.864,106.992 185.168 C 109.464 187.460,110.572 187.778,109.889 186.000 C 109.636 185.340,108.988 184.800,108.450 184.800 C 107.538 184.800,106.253 182.828,105.322 180.000 C 105.104 179.340,104.898 179.775,104.863 180.968 M303.840 184.160 C 304.368 184.688,304.849 186.038,304.909 187.160 L 305.018 189.200 305.386 187.200 C 305.588 186.100,306.123 184.750,306.575 184.200 C 307.137 183.515,307.134 183.200,306.565 183.200 C 306.107 183.200,305.552 183.650,305.330 184.200 C 305.007 185.000,304.914 185.000,304.863 184.200 C 304.828 183.650,304.368 183.200,303.840 183.200 C 303.093 183.200,303.093 183.413,303.840 184.160 M160.800 185.618 C 160.800 186.076,161.356 186.663,162.035 186.924 C 163.911 187.644,164.131 186.867,162.364 185.763 C 161.374 185.145,160.800 185.092,160.800 185.618 M129.954 186.475 C 129.707 186.874,130.427 187.200,131.553 187.200 C 134.004 187.200,134.202 186.744,132.001 186.168 C 131.121 185.938,130.200 186.076,129.954 186.475 M341.871 192.386 C 342.524 193.038,343.220 194.028,343.419 194.586 C 343.630 195.176,344.078 195.303,344.490 194.890 C 344.903 194.478,344.782 194.032,344.200 193.824 C 343.650 193.627,343.200 192.957,343.200 192.333 C 343.200 191.710,342.634 191.200,341.943 191.200 C 340.832 191.200,340.824 191.338,341.871 192.386 M354.358 206.756 C 355.415 207.880,356.399 208.800,356.546 208.800 C 357.267 208.800,354.678 205.571,353.636 205.171 C 352.977 204.918,353.302 205.631,354.358 206.756 M220.863 235.343 C 220.793 236.831,222.830 239.200,224.180 239.200 C 224.655 239.200,224.326 238.570,223.448 237.800 C 222.569 237.030,221.643 235.860,221.388 235.200 C 221.009 234.214,220.915 234.240,220.863 235.343 M325.928 236.260 C 325.294 236.986,325.321 237.508,326.028 238.168 C 326.773 238.864,327.000 238.624,327.000 237.138 C 327.000 236.072,326.955 235.214,326.900 235.230 C 326.845 235.247,326.407 235.711,325.928 236.260 M303.200 238.000 C 302.019 239.422,303.252 239.628,304.640 238.240 C 305.387 237.493,305.600 237.493,305.600 238.240 C 305.600 238.768,306.209 239.200,306.953 239.200 C 308.133 239.200,308.107 239.050,306.753 238.025 C 304.783 236.535,304.418 236.533,303.200 238.000 M332.000 239.600 C 331.452 240.260,330.448 240.800,329.769 240.800 C 329.089 240.800,328.746 241.013,329.006 241.273 C 329.765 242.031,332.611 240.847,333.101 239.570 C 333.677 238.069,333.261 238.081,332.000 239.600 M316.811 243.600 C 316.811 244.040,317.526 245.480,318.400 246.800 C 319.274 248.120,319.989 248.840,319.989 248.400 C 319.989 247.960,319.274 246.520,318.400 245.200 C 317.526 243.880,316.811 243.160,316.811 243.600 " stroke="none" fill="#000000" fill-rule="evenodd"></path><path id="path1" d="M55.667 155.800 C 55.410 156.057,55.200 157.608,55.200 159.248 C 55.200 162.798,55.939 163.200,62.465 163.200 L 67.200 163.200 67.200 174.714 C 67.200 186.932,67.286 187.200,71.208 187.200 C 74.629 187.200,75.200 185.303,75.200 173.943 L 75.200 163.200 79.800 163.188 C 86.432 163.170,89.356 159.340,85.108 156.234 C 83.592 155.126,56.737 154.730,55.667 155.800 M91.400 161.405 C 90.410 161.573,89.600 162.046,89.600 162.456 C 89.600 162.865,89.060 163.200,88.400 163.200 C 87.740 163.200,87.200 163.710,87.200 164.333 C 87.200 164.957,86.815 165.595,86.345 165.752 C 85.439 166.054,85.084 185.351,85.968 186.235 C 90.058 190.324,92.800 186.853,92.800 177.585 L 92.800 168.800 108.200 168.943 C 120.760 169.059,122.198 169.176,116.000 169.579 C 107.226 170.149,105.768 170.650,105.097 173.326 C 104.091 177.335,106.309 184.800,108.507 184.800 C 109.014 184.800,109.636 185.340,109.889 186.000 C 110.408 187.352,129.119 187.825,129.934 186.506 C 130.171 186.123,131.775 186.189,133.520 186.655 C 138.587 188.008,139.200 186.977,139.200 177.102 L 139.200 168.800 144.400 168.800 L 149.600 168.800 149.600 176.222 C 149.600 184.835,150.644 187.200,154.445 187.200 L 156.800 187.200 156.800 175.778 C 156.800 161.663,156.830 161.705,146.453 161.033 C 137.261 160.438,132.093 161.210,131.321 163.295 C 130.739 164.869,130.725 164.869,128.925 163.309 C 126.376 161.098,100.812 159.801,91.400 161.405 M161.215 162.719 C 160.107 163.672,159.200 164.889,159.200 165.425 C 159.200 165.961,158.840 166.400,158.400 166.400 C 157.960 166.400,157.600 167.660,157.600 169.200 C 157.600 170.740,157.915 172.000,158.300 172.000 C 159.356 172.000,160.118 176.893,159.229 177.965 C 158.802 178.480,158.656 180.138,158.906 181.651 C 160.156 189.230,182.067 189.541,183.521 182.000 C 184.469 177.087,184.567 176.000,184.065 176.000 C 183.120 176.000,181.536 170.821,182.395 170.535 C 184.278 169.907,183.265 164.227,181.000 162.717 C 177.472 160.365,163.953 160.367,161.215 162.719 M177.160 169.447 C 176.742 169.803,173.700 169.861,170.400 169.577 L 164.400 169.059 171.160 168.929 C 174.878 168.858,177.578 169.091,177.160 169.447 M123.200 178.000 C 123.200 178.944,122.089 179.200,118.000 179.200 C 113.911 179.200,112.800 178.944,112.800 178.000 C 112.800 177.056,113.911 176.800,118.000 176.800 C 122.089 176.800,123.200 177.056,123.200 178.000 M176.800 178.000 C 176.800 178.960,175.600 179.200,170.800 179.200 C 167.500 179.200,164.800 178.864,164.800 178.453 C 164.800 178.042,163.810 177.556,162.600 177.373 C 161.390 177.190,164.090 176.986,168.600 176.920 C 175.409 176.820,176.800 177.004,176.800 178.000 M248.850 183.011 C 218.849 183.264,221.062 182.465,220.863 193.116 C 220.730 200.287,220.801 200.617,222.762 201.902 C 225.314 203.574,225.322 204.533,222.800 206.870 C 221.062 208.481,220.800 209.405,220.800 213.921 C 220.800 218.355,221.093 219.434,222.800 221.276 C 225.341 224.018,225.320 225.106,222.703 226.299 C 220.738 227.194,220.629 227.528,220.968 231.616 C 221.490 237.905,226.397 241.489,229.812 238.074 C 230.779 237.106,231.140 237.528,232.382 241.074 C 233.894 245.392,236.396 248.800,238.054 248.800 C 238.590 248.800,239.236 249.340,239.489 250.000 C 239.846 250.930,241.406 251.200,246.411 251.200 L 252.873 251.200 252.273 248.200 C 251.943 246.550,251.716 241.002,251.768 235.870 L 251.862 226.540 247.331 226.246 C 244.839 226.085,241.427 226.189,239.749 226.478 C 230.232 228.118,226.395 224.544,226.418 214.061 C 226.440 203.854,227.242 202.528,233.797 201.851 L 238.327 201.384 238.563 196.892 C 238.938 189.788,242.993 189.500,243.359 196.551 C 243.654 202.247,245.827 203.332,246.259 198.000 C 246.562 194.258,248.431 191.832,250.756 192.165 C 252.967 192.481,253.775 212.591,251.625 213.794 C 248.914 215.311,250.574 225.840,253.679 226.825 C 255.783 227.493,260.083 236.512,259.534 239.105 C 259.156 240.895,259.245 241.025,260.145 240.000 C 261.041 238.981,264.261 238.834,281.507 239.027 C 299.274 239.226,301.992 239.093,303.239 237.964 C 304.552 236.777,304.828 236.782,306.729 238.027 C 309.007 239.520,313.974 239.112,314.679 237.375 C 314.911 236.802,315.100 236.954,315.137 237.745 C 315.257 240.304,320.284 248.800,321.679 248.800 C 322.421 248.800,323.236 249.340,323.489 250.000 C 324.125 251.656,335.613 251.734,336.560 250.089 C 336.912 249.478,337.920 248.845,338.800 248.681 C 339.727 248.509,340.507 247.630,340.656 246.592 C 340.796 245.606,341.426 244.800,342.056 244.800 C 342.789 244.800,343.200 243.954,343.200 242.447 C 343.200 239.438,344.210 238.863,349.038 239.119 C 356.239 239.501,356.802 238.290,356.790 222.461 L 356.780 209.200 353.671 205.853 C 351.961 204.012,350.765 202.302,351.014 202.053 C 351.263 201.804,350.867 201.600,350.133 201.600 C 349.400 201.600,348.800 201.314,348.800 200.965 C 348.800 200.615,347.355 198.725,345.589 196.765 C 341.495 192.219,340.800 191.362,340.800 190.855 C 340.800 190.628,339.171 188.813,337.179 186.821 L 333.558 183.200 320.477 183.200 C 306.577 183.200,306.098 183.327,305.386 187.200 L 305.018 189.200 304.909 187.098 C 304.689 182.853,300.862 182.574,248.850 183.011 M260.633 200.865 C 260.878 209.613,260.491 212.800,259.185 212.800 C 258.712 212.800,258.400 208.642,258.400 202.333 C 258.400 188.853,260.263 187.628,260.633 200.865 M284.109 194.619 C 285.709 196.038,288.124 198.100,289.475 199.200 C 292.648 201.783,292.604 202.352,289.000 205.358 C 287.350 206.735,285.280 208.535,284.400 209.359 C 280.436 213.068,278.960 213.600,272.622 213.600 L 266.400 213.600 266.400 202.800 L 266.400 192.000 273.800 192.019 C 280.992 192.037,281.282 192.110,284.109 194.619 M230.933 206.933 C 230.267 207.600,230.227 218.619,230.886 220.335 C 231.277 221.356,232.729 221.600,238.400 221.600 C 246.552 221.600,246.406 221.743,246.388 213.735 C 246.374 207.849,245.381 205.116,244.012 207.200 C 243.579 207.860,243.219 209.570,243.212 211.000 C 243.202 213.203,242.909 213.600,241.293 213.600 C 239.331 213.600,238.433 211.919,238.411 208.200 C 238.400 206.405,232.466 205.400,230.933 206.933 M99.821 218.987 C 101.703 219.156,104.583 219.153,106.221 218.982 C 107.860 218.810,106.320 218.671,102.800 218.674 C 99.280 218.677,97.940 218.818,99.821 218.987 M147.000 218.990 C 149.310 219.151,153.090 219.151,155.400 218.990 C 157.710 218.828,155.820 218.696,151.200 218.696 C 146.580 218.696,144.690 218.828,147.000 218.990 M247.595 233.880 C 249.916 236.202,249.410 240.497,246.755 241.004 C 244.618 241.413,242.029 239.648,242.840 238.336 C 243.090 237.931,242.823 237.594,242.247 237.588 C 241.535 237.579,241.482 237.388,242.080 236.988 C 242.564 236.664,243.387 235.590,243.908 234.600 C 244.993 232.540,246.049 232.334,247.595 233.880 M331.625 233.911 C 333.316 235.602,333.666 239.020,332.289 240.396 C 330.746 241.939,329.135 241.927,327.832 240.362 C 327.264 239.681,326.418 238.714,325.951 238.213 C 324.055 236.181,329.652 231.938,331.625 233.911 " stroke="none" fill="#3a3a3a" fill-rule="evenodd"></path><path id="path2" d="" stroke="none" fill="#ff0000" fill-rule="evenodd"></path><path id="path3" d="M230.198 157.966 C 220.857 166.997,220.845 167.551,229.800 176.330 L 236.400 182.800 250.000 182.872 C 257.480 182.911,262.431 182.798,261.003 182.621 C 257.603 182.200,257.494 181.629,257.772 165.600 L 258.000 152.400 261.478 152.150 C 263.782 151.985,264.779 152.187,264.431 152.750 C 264.142 153.218,264.287 153.600,264.753 153.600 C 265.219 153.600,265.600 153.060,265.600 152.400 C 265.600 151.378,263.489 151.200,251.398 151.200 L 237.196 151.200 230.198 157.966 M261.600 180.849 L 258.800 181.389 261.400 181.495 C 262.830 181.553,264.000 181.960,264.000 182.400 C 264.000 182.840,264.360 183.200,264.800 183.200 C 265.726 183.200,265.893 181.037,265.000 180.602 C 264.670 180.441,263.140 180.553,261.600 180.849 M119.400 192.945 C 117.430 193.930,116.465 220.800,118.400 220.800 C 118.840 220.800,119.200 222.021,119.200 223.513 C 119.200 227.128,118.988 227.096,143.000 227.152 L 163.200 227.199 163.200 224.031 C 163.200 222.289,162.714 220.409,162.120 219.854 C 161.214 219.007,161.214 218.672,162.120 217.766 C 163.748 216.138,163.641 203.200,162.000 203.200 C 161.340 203.200,160.800 202.701,160.800 202.091 C 160.800 199.678,149.121 198.635,141.506 200.367 C 136.827 201.431,135.622 201.482,135.100 200.639 C 134.403 199.511,134.167 199.449,130.000 199.300 C 127.506 199.211,127.199 198.959,127.188 197.000 C 127.165 192.929,123.379 190.958,119.400 192.945 M209.760 192.960 C 209.094 193.626,208.800 197.796,208.800 206.560 L 208.800 219.200 196.800 219.200 L 184.800 219.200 184.800 207.200 L 184.800 195.200 180.886 195.200 C 175.894 195.200,175.998 194.872,176.011 210.665 C 176.027 229.175,174.010 227.200,192.893 227.200 C 208.797 227.200,208.800 227.200,208.800 225.422 L 208.800 223.644 210.045 225.422 C 212.137 228.409,224.800 227.522,224.800 224.388 C 224.800 222.589,220.906 219.200,218.838 219.200 C 216.863 219.200,216.800 219.039,216.800 214.000 C 216.800 209.016,216.881 208.800,218.759 208.800 C 220.681 208.800,224.800 205.723,224.800 204.286 C 224.800 203.034,219.913 199.200,218.318 199.200 C 217.089 199.200,216.800 198.611,216.800 196.100 C 216.800 193.268,216.584 192.957,214.300 192.500 C 210.983 191.837,210.872 191.848,209.760 192.960 M238.933 192.533 C 238.640 192.827,238.400 194.936,238.400 197.221 L 238.400 201.376 233.834 201.847 C 227.237 202.528,226.440 203.841,226.418 214.061 C 226.395 224.544,230.232 228.118,239.749 226.478 C 241.427 226.189,244.823 226.084,247.295 226.244 L 251.790 226.536 251.751 237.257 C 251.729 243.154,251.957 248.224,252.257 248.524 C 253.025 249.292,256.800 247.138,256.800 245.931 C 256.800 245.383,257.194 244.802,257.675 244.642 C 261.374 243.409,257.971 228.187,253.693 226.830 C 250.576 225.840,248.906 215.315,251.625 213.794 C 253.775 212.591,252.967 192.481,250.756 192.165 C 248.431 191.832,246.562 194.258,246.259 198.000 C 245.830 203.304,243.655 202.254,243.360 196.600 C 243.125 192.096,241.168 190.298,238.933 192.533 M258.400 202.333 C 258.400 212.079,259.245 215.708,260.418 211.000 C 261.278 207.550,260.466 192.552,259.400 192.198 C 258.634 191.944,258.400 194.316,258.400 202.333 M266.400 202.800 L 266.400 213.600 272.622 213.600 C 278.960 213.600,280.436 213.068,284.400 209.359 C 285.280 208.535,287.350 206.735,289.000 205.358 C 292.604 202.352,292.648 201.783,289.475 199.200 C 288.124 198.100,285.709 196.038,284.109 194.619 C 281.282 192.110,280.992 192.037,273.800 192.019 L 266.400 192.000 266.400 202.800 M51.200 211.244 L 51.200 227.288 55.000 227.044 L 58.800 226.800 59.026 217.800 C 59.151 212.850,59.421 208.800,59.626 208.800 C 60.255 208.800,63.200 211.959,63.200 212.633 C 63.200 213.310,68.548 219.200,69.163 219.200 C 69.937 219.200,78.954 209.919,79.655 208.400 C 80.173 207.280,80.515 209.799,80.797 216.800 L 81.200 226.800 84.949 227.042 L 88.698 227.284 88.949 224.242 L 89.200 221.200 90.638 224.200 L 92.075 227.200 104.438 227.200 L 116.800 227.200 116.800 215.609 C 116.800 203.357,116.087 200.800,112.669 200.800 C 111.913 200.800,111.086 200.463,110.832 200.052 C 109.984 198.679,91.791 199.148,90.200 200.584 C 88.889 201.768,88.800 201.638,88.800 198.524 L 88.800 195.200 84.175 195.200 C 79.330 195.200,76.709 197.128,70.863 204.992 L 69.325 207.060 67.063 203.937 C 65.818 202.219,64.800 200.512,64.800 200.142 C 64.800 199.773,63.900 198.989,62.800 198.400 C 61.700 197.811,60.800 196.850,60.800 196.265 C 60.800 195.497,59.462 195.200,56.000 195.200 L 51.200 195.200 51.200 211.244 M238.411 208.200 C 238.433 211.919,239.331 213.600,241.293 213.600 C 242.909 213.600,243.202 213.203,243.212 211.000 C 243.219 209.570,243.579 207.860,244.012 207.200 C 245.381 205.116,246.374 207.849,246.388 213.735 C 246.406 221.743,246.552 221.600,238.400 221.600 C 230.203 221.600,230.400 221.806,230.400 213.268 C 230.400 206.456,230.437 206.400,234.933 206.400 C 237.992 206.400,238.401 206.612,238.411 208.200 M91.390 209.493 C 90.625 209.653,89.736 210.193,89.412 210.693 C 89.081 211.204,88.819 210.674,88.812 209.475 C 88.801 207.496,88.936 207.414,90.790 208.275 C 92.410 209.028,92.521 209.254,91.390 209.493 M135.200 214.000 L 135.200 219.200 131.200 219.200 L 127.200 219.200 127.200 214.000 L 127.200 208.800 131.200 208.800 L 135.200 208.800 135.200 214.000 M106.221 218.982 C 104.583 219.153,101.703 219.156,99.821 218.987 C 97.940 218.818,99.280 218.677,102.800 218.674 C 106.320 218.671,107.860 218.810,106.221 218.982 M155.400 218.990 C 153.090 219.151,149.310 219.151,147.000 218.990 C 144.690 218.828,146.580 218.696,151.200 218.696 C 155.820 218.696,157.710 218.828,155.400 218.990 " stroke="none" fill="#e78200" fill-rule="evenodd"></path><path id="path4" d="M265.600 152.455 C 265.600 153.085,265.219 153.600,264.753 153.600 C 264.287 153.600,264.142 153.218,264.431 152.750 C 264.779 152.187,263.782 151.985,261.478 152.150 L 258.000 152.400 257.772 165.600 C 257.491 181.788,257.560 182.127,261.193 182.551 C 262.737 182.731,264.000 182.614,264.000 182.290 C 264.000 181.966,262.830 181.581,261.400 181.435 L 258.800 181.168 261.913 180.732 C 264.317 180.394,265.102 180.581,265.355 181.548 C 265.628 182.595,267.219 182.800,275.041 182.800 L 284.400 182.800 284.617 167.055 L 284.833 151.310 275.217 151.310 C 267.408 151.310,265.600 151.526,265.600 152.455 " stroke="none" fill="#e6d4bc" fill-rule="evenodd"></path></g></svg>